<?xml version="1.0" encoding="UTF-8" standalone="no"?>
<svg
   id="svg8"
   version="1.1"
   viewBox="0 0 192 192.00002"
   height="192.00002mm"
   width="192mm"
   sodipodi:docname="IconMonochrome.svg"
   inkscape:version="1.2.1 (9c6d41e410, 2022-07-14)"
   inkscape:export-filename="IconMonochrometest.svg"
   inkscape:export-xdpi="108"
   inkscape:export-ydpi="108"
   xmlns:inkscape="http://www.inkscape.org/namespaces/inkscape"
   xmlns:sodipodi="http://sodipodi.sourceforge.net/DTD/sodipodi-0.dtd"
   xmlns="http://www.w3.org/2000/svg"
   xmlns:svg="http://www.w3.org/2000/svg"
   xmlns:rdf="http://www.w3.org/1999/02/22-rdf-syntax-ns#"
   xmlns:cc="http://creativecommons.org/ns#"
   xmlns:dc="http://purl.org/dc/elements/1.1/">
  <sodipodi:namedview
     id="namedview21"
     pagecolor="#ffffff"
     bordercolor="#666666"
     borderopacity="1.0"
     inkscape:showpageshadow="2"
     inkscape:pageopacity="0.0"
     inkscape:pagecheckerboard="0"
     inkscape:deskcolor="#d1d1d1"
     inkscape:document-units="mm"
     showgrid="false"
     inkscape:zoom="0.72553702"
     inkscape:cx="276.34703"
     inkscape:cy="305.98025"
     inkscape:window-width="1279"
     inkscape:window-height="1371"
     inkscape:window-x="26"
     inkscape:window-y="23"
     inkscape:window-maximized="0"
     inkscape:current-layer="layer1" />
  <defs
     id="defs2" />
  <metadata
     id="metadata5">
    <rdf:RDF>
      <cc:Work
         rdf:about="">
        <dc:format>image/svg+xml</dc:format>
        <dc:type
           rdf:resource="http://purl.org/dc/dcmitype/StillImage" />
      </cc:Work>
    </rdf:RDF>
  </metadata>
  <g
     id="layer1"
     style="display:inline"
     transform="translate(-9.1772177,-7.7384951)">
    <g
       id="g1322"
       transform="matrix(0.66666684,0,0,0.66666684,31.094845,32.11396)">
      <path
         id="path26"
         style="fill:#000000;fill-opacity:1;stroke:none;stroke-width:0.355693;stroke-linecap:round;stroke-linejoin:round"
         d="m 109.69625,70.467025 a 43.62252,43.947796 0 0 0 -0.0956,0.0039 l 0.447,1.431437 0.35786,-1.405599 a 43.62252,43.947796 0 0 0 -0.70926,-0.02971 z m 0.37401,11.306804 c -1.60522,2.639313 -4.36842,5.496409 -7.74113,7.73144 L 66.111704,113.50639 a 43.62252,43.947796 0 0 0 -0.03746,0.90821 43.62252,43.947796 0 0 0 43.622016,43.94822 43.62252,43.947796 0 0 0 43.62265,-43.94822 43.62252,43.947796 0 0 0 -0.25773,-4.50489 L 118.55747,89.606684 c -3.72777,-2.193495 -6.79858,-5.134069 -8.48721,-7.832855 z" />
      <path
         id="path1062"
         d="M 158.64362,80.789948 125.27536,59.764696 C 120.3176,56.640827 115.8159,55.893769 115.21963,58.23907 l -3.54215,13.932087 c -0.84303,3.315854 3.66264,9.22522 10.04453,12.989786 l 42.29287,24.947857 c 5.52112,3.25683 9.05745,2.38118 8.06698,-1.69408 L 167.8597,91.042403 c -0.72055,-2.964719 -4.79308,-7.465534 -9.21608,-10.252459 z"
         style="fill:#000000;fill-opacity:1;stroke:none;stroke-width:0.273304;stroke-linecap:round;stroke-linejoin:round" />
      <path
         style="fill:#000000;fill-opacity:1;stroke:none;stroke-width:0.273304;stroke-linecap:round;stroke-linejoin:round"
         d="M 62.049016,82.79377 94.248005,60.018227 c 4.784029,-3.383921 9.239465,-4.370084 9.960015,-2.059935 l 4.2804,13.723267 c 1.01874,3.266154 -3.16524,9.407486 -9.337203,13.50717 L 58.249598,112.35743 c -5.339502,3.54676 -8.917501,2.86102 -8.145882,-1.26127 l 3.289328,-17.572846 c 0.561348,-2.998938 4.387951,-7.710618 8.655971,-10.729548 z"
         id="rect988" />
      <path
         d="m 106.00537,56.510752 h 8.59673 c 1.25402,0 2.26357,1.009553 2.26357,2.263571 l -10e-6,18.765878 c 0,1.25402 -1.00955,2.263571 -2.26357,2.263571 l -8.59673,1e-6 c -1.25402,0 -2.26357,-1.009552 -2.26357,-2.263571 l 1e-5,-18.765879 c 0,-1.254018 1.00955,-2.263571 2.26357,-2.263571 z"
         style="fill:#000000;fill-opacity:1;stroke:none;stroke-width:0.273107;stroke-linecap:round;stroke-linejoin:round"
         id="rect992" />
    </g>
  </g>
</svg>
