<?xml version="1.0" encoding="UTF-8" standalone="no"?>
<svg
   sodipodi:docname="HeartNunti.svg"
   inkscape:version="1.1.1 (3bf5ae0d25, 2021-09-20, custom)"
   id="svg8"
   version="1.1"
   viewBox="0 0 210 297"
   height="297mm"
   width="210mm"
   inkscape:export-filename="/home/ondra/Projekty/nunti/Nunti/Resources/HeartNunti.png"
   inkscape:export-xdpi="207.77313"
   inkscape:export-ydpi="207.77313"
   xmlns:inkscape="http://www.inkscape.org/namespaces/inkscape"
   xmlns:sodipodi="http://sodipodi.sourceforge.net/DTD/sodipodi-0.dtd"
   xmlns="http://www.w3.org/2000/svg"
   xmlns:svg="http://www.w3.org/2000/svg"
   xmlns:rdf="http://www.w3.org/1999/02/22-rdf-syntax-ns#"
   xmlns:cc="http://creativecommons.org/ns#"
   xmlns:dc="http://purl.org/dc/elements/1.1/">
  <defs
     id="defs2">
    <inkscape:path-effect
       overflow_perspective="false"
       vertical_mirror="false"
       horizontal_mirror="false"
       deform_type="perspective"
       lpeversion="1"
       is_visible="true"
       id="path-effect1112"
       down_right_point="82.489113,28.841219"
       down_left_point="36.481778,45.525346"
       up_right_point="85.280046,15.26469"
       up_left_point="38.859878,33.684446"
       effect="perspective-envelope" />
    <inkscape:path-effect
       overflow_perspective="false"
       vertical_mirror="false"
       horizontal_mirror="false"
       deform_type="perspective"
       lpeversion="1"
       is_visible="true"
       id="path-effect1084"
       down_right_point="55.675981,38.067154"
       down_left_point="27.133232,58.152793"
       up_right_point="54.795032,25.195141"
       up_left_point="25.976876,45.265357"
       effect="perspective-envelope" />
    <inkscape:path-effect
       overflow_perspective="false"
       vertical_mirror="false"
       horizontal_mirror="false"
       deform_type="perspective"
       lpeversion="1"
       is_visible="true"
       id="path-effect1057"
       down_right_point="157.83983,65.603083"
       down_left_point="105.60963,100.72332"
       up_right_point="156.03878,33.724715"
       up_left_point="114.61483,63.982152"
       effect="perspective-envelope" />
    <inkscape:path-effect
       effect="perspective-envelope"
       up_left_point="65.402313,63.982152"
       up_right_point="106.82621,33.724715"
       down_left_point="56.397124,100.72332"
       down_right_point="108.62726,65.603083"
       id="path-effect1051"
       is_visible="true"
       lpeversion="1"
       deform_type="perspective"
       horizontal_mirror="false"
       vertical_mirror="false"
       overflow_perspective="false" />
    <inkscape:path-effect
       overflow_perspective="false"
       vertical_mirror="false"
       horizontal_mirror="false"
       deform_type="perspective"
       lpeversion="1"
       is_visible="true"
       id="path-effect990"
       down_right_point="108.06227,65.197569"
       down_left_point="55.832176,100.31781"
       up_right_point="106.26123,33.319201"
       up_left_point="64.837365,63.576638"
       effect="perspective-envelope" />
    <inkscape:path-effect
       overflow_perspective="false"
       vertical_mirror="false"
       horizontal_mirror="false"
       deform_type="perspective"
       lpeversion="1"
       is_visible="true"
       id="path-effect912"
       down_right_point="24.080172,69.196051"
       down_left_point="24.084709,69.202072"
       up_right_point="24.079198,69.20274"
       up_left_point="24.078698,69.21922"
       effect="perspective-envelope" />
    <inkscape:path-effect
       effect="perspective-envelope"
       up_left_point="109.84706,43.218522"
       up_right_point="165.67099,65.085037"
       down_left_point="107.78905,79.491211"
       down_right_point="167.72901,99.556953"
       id="path-effect908"
       is_visible="true"
       lpeversion="1"
       deform_type="perspective"
       horizontal_mirror="false"
       vertical_mirror="false"
       overflow_perspective="false" />
    <inkscape:path-effect
       overflow_perspective="false"
       vertical_mirror="false"
       horizontal_mirror="false"
       deform_type="perspective"
       lpeversion="1"
       is_visible="true"
       id="path-effect904"
       down_right_point="170.81605,98.785194"
       down_left_point="110.87609,78.719452"
       up_right_point="168.75803,57.88195"
       up_left_point="110.61884,36.272689"
       effect="perspective-envelope" />
  </defs>
  <sodipodi:namedview
     inkscape:snap-global="false"
     inkscape:window-maximized="1"
     inkscape:window-y="27"
     inkscape:window-x="0"
     inkscape:window-height="1025"
     inkscape:window-width="1920"
     showgrid="false"
     inkscape:document-rotation="0"
     inkscape:current-layer="layer1"
     inkscape:document-units="mm"
     inkscape:cy="545.27822"
     inkscape:cx="457.65878"
     inkscape:zoom="1.2268966"
     inkscape:pageshadow="2"
     inkscape:pageopacity="0"
     borderopacity="1.0"
     bordercolor="#666666"
     pagecolor="#edffd1"
     id="base"
     inkscape:pagecheckerboard="0" />
  <metadata
     id="metadata5">
    <rdf:RDF>
      <cc:Work
         rdf:about="">
        <dc:format>image/svg+xml</dc:format>
        <dc:type
           rdf:resource="http://purl.org/dc/dcmitype/StillImage" />
      </cc:Work>
    </rdf:RDF>
  </metadata>
  <g
     id="layer1"
     inkscape:groupmode="layer"
     inkscape:label="Layer 1">
    <path
       transform="scale(0.26458333)"
       d="m 381.81445,696.42773 c -8.3724,-0.011 -15.12181,6.7194 -15.13281,15.0918 l -0.0254,18.92774 h -18.92578 c -8.37242,0 -15.11328,6.74087 -15.11328,15.11328 0,8.37241 6.74086,15.11133 15.11328,15.11133 h 34 c 4.1862,0 7.9637,-1.6844 10.69531,-4.41602 0.002,-0.002 0.004,-0.004 0.006,-0.006 2.7352,-2.72803 4.42614,-6.50325 4.43164,-10.68945 l 0.043,-34 c 0.011,-8.37241 -6.71936,-15.12182 -15.0918,-15.13282 z"
       style="fill:#d0d800;fill-opacity:1;stroke:none;stroke-width:0.867935;stroke-linecap:round;stroke-linejoin:round"
       id="rect34" />
    <path
       id="path45"
       style="fill:#d0d800;fill-opacity:1;stroke:none;stroke-width:0.229641;stroke-linecap:round;stroke-linejoin:round"
       d="m 118.98547,184.26317 c 2.21521,-0.003 4.001,1.77784 4.00391,3.99304 l 0.007,5.00796 h 5.0075 c 2.21521,0 3.99874,1.78352 3.99874,3.99872 0,2.2152 -1.78353,3.99821 -3.99874,3.99821 H 119.008 c -1.1076,0 -2.10707,-0.44567 -2.8298,-1.16841 -5.3e-4,-5.3e-4 -0.001,-0.001 -0.002,-0.002 -0.72369,-0.72179 -1.17108,-1.72066 -1.17254,-2.82825 l -0.0114,-8.99584 c -0.003,-2.2152 1.77783,-4.00098 3.99304,-4.00389 z" />
    <path
       transform="scale(0.26458333)"
       d="m 381.81445,696.42773 c -8.3724,-0.011 -15.12181,6.7194 -15.13281,15.0918 l -0.0254,18.92774 30.21094,11.62304 0.0391,-30.50976 c 0.011,-8.37241 -6.71936,-15.12182 -15.0918,-15.13282 z"
       style="fill:#a8ae00;fill-opacity:1;stroke:none;stroke-width:0.999999px;stroke-linecap:butt;stroke-linejoin:miter;stroke-opacity:1"
       id="path893" />
    <path
       id="path898"
       style="fill:#a8ae00;fill-opacity:1;stroke:none;stroke-width:0.264583px;stroke-linecap:butt;stroke-linejoin:miter;stroke-opacity:1"
       d="m 118.99533,184.26317 c 2.21521,-0.003 4.001,1.77784 4.00391,3.99304 l 0.007,5.00796 -7.99333,3.07526 -0.0103,-8.07237 c -0.003,-2.2152 1.77783,-4.00098 3.99304,-4.00389 z" />
    <ellipse
       ry="30.945559"
       rx="33.873016"
       cy="158.65181"
       cx="109.69825"
       id="path28"
       style="fill:#178d62;fill-opacity:1;stroke:none;stroke-width:0.338344;stroke-linecap:round;stroke-linejoin:round" />
    <path
       style="fill:#e6e6e6;fill-opacity:1;stroke:none;stroke-width:0.263088;stroke-linecap:round;stroke-linejoin:round"
       d="M 77.263397,82.170326 110.12091,64.940194 c 4.8819,-2.56 9.11757,-2.814867 9.44799,-0.427539 l 1.96286,14.181702 c 0.4672,3.375263 -4.2592,8.743067 -10.51921,11.784227 L 69.527471,110.63239 c -5.415673,2.63101 -8.60502,1.38259 -7.304117,-2.5473 l 5.545604,-16.752642 c 0.946397,-2.858959 5.139132,-6.878246 9.494439,-9.162122 z"
       id="path1066" />
    <path
       id="path1068"
       d="m 157.0791,93.290068 -27.23328,-25.19612 c -4.04624,-3.743565 -8.0692,-5.093244 -9.01024,-2.874468 l -5.59015,13.180431 c -1.33048,3.136954 1.83407,9.550827 7.08546,14.118003 l 34.80105,30.266746 c 4.54312,3.9512 7.94759,3.57689 7.71556,-0.55622 l -0.98911,-17.61891 c -0.16881,-3.0068 -3.16949,-7.979683 -6.77929,-11.319462 z"
       style="fill:#e6e6e6;fill-opacity:1;stroke:none;stroke-width:0.263088;stroke-linecap:round;stroke-linejoin:round" />
    <ellipse
       ry="43.947796"
       rx="43.62252"
       cy="94.099953"
       cx="128.83144"
       id="path26"
       style="fill:#1eba81;fill-opacity:1;stroke:none;stroke-width:0.355693;stroke-linecap:round;stroke-linejoin:round"
       transform="rotate(9.0805563)" />
    <path
       sodipodi:nodetypes="cccscccc"
       id="path1120"
       style="fill:#199b6b;fill-opacity:1;stroke:none;stroke-width:0.239821;stroke-linecap:round;stroke-linejoin:round"
       d="m 120.79084,70.118879 c 6.29389,1.209009 12.25512,3.702021 17.45964,7.301702 l 8.12266,7.248394 c 7.95271,9.126643 11.44858,20.934085 9.60784,32.450925 -0.0929,0.5812 -0.31319,1.01935 -0.43286,1.59573 L 124.01739,92.245179 c -7.4612,-8.319902 -13.73869,-5.347527 -12.61056,-8.172662 z" />
    <path
       sodipodi:nodetypes="cccccccc"
       d="m 117.86047,69.65053 c -6.35887,-0.802434 -12.81294,-0.211837 -18.9031,1.729783 L 88.930817,76.044276 C 78.464516,82.644649 71.369356,93.357307 69.43087,105.48634 c -0.09778,0.61211 -0.07417,1.1801 -0.145093,1.79591 L 115.26494,87.248624 c 6.04728,-2.595072 5.15876,0.339081 4.9923,-2.852721 z"
       style="fill:#199b6b;fill-opacity:1;stroke:none;stroke-width:0.246112;stroke-linecap:round;stroke-linejoin:round"
       id="path1114" />
    <path
       style="fill:#ffffff;fill-opacity:1;stroke:none;stroke-width:0.266108;stroke-linecap:round;stroke-linejoin:round"
       d="M 161.24924,91.657035 132.33725,66.320092 c -4.29566,-3.764489 -8.51581,-5.176612 -9.44871,-3.016931 l -5.5418,12.829382 c -1.31897,3.053404 2.11529,9.422452 7.68416,14.021901 l 36.90494,30.480596 c 4.81774,3.97912 8.35662,3.68426 8.0264,-0.38125 l -1.40773,-17.33082 c -0.24027,-2.957645 -3.47293,-7.907484 -7.30527,-11.265935 z"
       id="path1070" />
    <path
       id="path1064"
       d="M 73.662776,79.507158 108.17773,62.578459 c 5.12814,-2.515215 9.57045,-2.778992 9.90842,-0.450837 l 2.00765,13.830182 c 0.47785,3.2916 -4.49726,8.545852 -11.07219,11.535449 l -43.572,19.812117 c -5.688109,2.5864 -9.027924,1.37966 -7.649818,-2.45939 l 5.8747,-16.365424 c 1.002561,-2.792884 5.41328,-6.729478 9.988284,-8.973398 z"
       style="fill:#ffffff;fill-opacity:1;stroke:none;stroke-width:0.266108;stroke-linecap:round;stroke-linejoin:round" />
    <ellipse
       ry="16.548435"
       rx="14.456708"
       cy="109.84657"
       cx="129.77135"
       id="path870"
       style="fill:#c9ca20;fill-opacity:1;stroke:none;stroke-width:0.260711;stroke-linecap:round;stroke-linejoin:round"
       transform="rotate(9.0805563)" />
    <path
       sodipodi:nodetypes="ccscc"
       d="m 113.6677,112.6491 c -6.89261,-1.1016 -15.904708,3.48334 -17.427794,15.93868 4.457734,2.37322 9.368784,4.46056 14.643624,5.23135 5.35231,0.78212 10.68353,-1.17636 14.01938,-1.92908 1.81583,-9.53344 -3.54475,-18.01159 -11.23521,-19.24095 z"
       style="fill:#d0e041;fill-opacity:1;stroke:none;stroke-width:0.240024px;stroke-linecap:butt;stroke-linejoin:miter;stroke-opacity:1"
       id="path879" />
    <rect
       ry="2.689332"
       y="84.795792"
       x="147.26794"
       height="14.579011"
       width="6.0553665"
       id="rect887"
       style="fill:#353535;fill-opacity:1;stroke:none;stroke-width:0.281175;stroke-linecap:round;stroke-linejoin:round"
       transform="rotate(9.0805563)" />
    <rect
       style="fill:#353535;fill-opacity:1;stroke:none;stroke-width:0.281175;stroke-linecap:round;stroke-linejoin:round"
       id="rect891"
       width="6.0553665"
       height="14.579011"
       x="104.37109"
       y="85.324951"
       ry="2.689332"
       transform="rotate(9.0805563)" />
    <path
       id="path1062"
       d="m 166.00611,87.774807 -29.6318,-26.02803 c -4.40261,-3.867167 -8.72999,-5.315334 -9.68893,-3.093531 l -5.69656,13.198449 c -1.35578,3.141249 2.16079,9.687653 7.86856,14.412248 l 37.82549,31.309977 c 4.93792,4.08737 8.56813,3.78081 8.23324,-0.39969 l -1.42749,-17.820945 c -0.24362,-3.041287 -3.55478,-8.128434 -7.48251,-11.578482 z"
       style="fill:#935328;fill-opacity:1;stroke:none;stroke-width:0.273304;stroke-linecap:round;stroke-linejoin:round" />
    <path
       style="fill:#935328;fill-opacity:1;stroke:none;stroke-width:0.273304;stroke-linecap:round;stroke-linejoin:round"
       d="M 70.305839,74.508668 105.69579,57.100301 c 5.25814,-2.586482 9.81337,-2.857115 10.1603,-0.462199 l 2.06091,14.226824 c 0.49049,3.386002 -4.61029,8.790039 -11.35193,11.864266 L 61.888212,103.10218 c -5.832344,2.65961 -9.257276,1.41778 -7.844735,-2.53107 L 60.06498,83.737632 c 1.027614,-2.87276 5.549871,-6.921465 10.240858,-9.228968 z"
       id="rect988" />
    <path
       sodipodi:nodetypes="sssssssss"
       d="m 117.85937,55.492366 8.48899,1.356762 c 1.2383,0.197913 2.07587,1.354144 1.87796,2.592446 l -2.9617,18.530691 c -0.19791,1.238304 -1.35414,2.075873 -2.59245,1.87796 l -8.48899,-1.356761 c -1.2383,-0.197913 -2.07587,-1.354143 -1.87795,-2.592446 l 2.96169,-18.530692 c 0.19791,-1.238302 1.35414,-2.075873 2.59245,-1.87796 z"
       style="fill:#ac602f;fill-opacity:1;stroke:none;stroke-width:0.273107;stroke-linecap:round;stroke-linejoin:round"
       id="rect992" />
    <g
       transform="rotate(-0.62644597,4133.3338,-2771.4044)"
       id="g1082" />
    <path
       sodipodi:nodetypes="cssscc"
       id="path30"
       d="m 79.09049,149.91224 c 0.05259,-0.007 -3.36801,-2.66578 -6.805979,-2.71034 -3.016658,-0.0391 -5.601382,2.10804 -6.384369,5.17977 -0.927873,3.64013 -0.963679,11.26299 2.469424,16.44276 3.433107,5.17978 10.266901,11.09556 17.105293,13.13012 23.264351,9.80338 0.487859,-24.53766 -6.384369,-32.04231 z"
       style="fill:#1eba81;fill-opacity:1;stroke:none;stroke-width:0.264583px;stroke-linecap:butt;stroke-linejoin:miter;stroke-opacity:1" />
    <path
       style="fill:#d20000;fill-opacity:1;stroke-width:0.0849211"
       d="m 115.29196,196.03697 c -3.43193,-2.73019 -5.9666,-4.39068 -10.26975,-6.72786 -3.21429,-1.7458 -4.29452,-2.27681 -10.11829,-4.97389 -2.11865,-0.98119 -4.672279,-2.19644 -5.674726,-2.70058 -7.902117,-3.97404 -12.165626,-7.8898 -14.927556,-13.71005 -0.517227,-1.09005 -1.546605,-4.27784 -1.73758,-5.38115 -1.06524,-6.15436 1.151453,-12.36845 5.848951,-16.3965 3.973823,-3.40751 9.313653,-4.87043 14.460081,-3.96155 1.78359,0.315 3.36717,0.8564 5.02299,1.71732 1.0172,0.52885 2.47026,1.47426 3.01789,1.96353 0.15349,0.13709 0.30419,0.24184 0.33503,0.23267 0.0308,-0.009 0.19338,-0.42368 0.36136,-0.9212 0.57621,-1.70655 1.78645,-3.83303 3.04378,-5.34816 3.86049,-4.65203 9.98754,-7.00645 15.98474,-6.1424 5.92753,0.85399 11.06229,4.75355 13.52787,10.27357 0.52578,1.17707 1.36713,4.17947 1.53706,5.48487 0.45935,3.52845 0.19337,6.69723 -0.85147,10.14455 -1.22083,4.02801 -2.76149,7.05292 -7.46529,14.65751 -2.97786,4.81425 -5.42255,6.23272 -6.72269,8.62531 -2.2874,4.20932 -1.55107,5.72454 -3.4943,11.6017 l -0.80011,2.4199 z"
       id="path1292"
       sodipodi:nodetypes="sssscssssscssssssssscs" />
    <path
       style="fill:#ff0000;fill-opacity:1;stroke-width:0.0849211"
       d="m 116.07568,193.78275 c -3.43193,-2.73019 -5.9666,-4.39068 -10.26975,-6.72786 -3.21429,-1.7458 -4.29452,-2.27681 -10.118295,-4.97389 -2.118651,-0.98119 -4.672278,-2.19644 -5.674725,-2.70058 -7.902117,-3.97404 -12.165626,-7.8898 -14.927556,-13.71005 -0.517227,-1.09005 -1.546605,-4.27784 -1.73758,-5.38115 -1.06524,-6.15436 1.151453,-12.36845 5.848951,-16.3965 3.973823,-3.40751 9.313653,-4.87043 14.460081,-3.96155 1.783587,0.315 3.367172,0.8564 5.022992,1.71732 1.017194,0.52885 2.470262,1.47426 3.017892,1.96353 0.15349,0.13709 0.30419,0.24184 0.33503,0.23267 0.0308,-0.009 0.19338,-0.42368 0.36136,-0.9212 0.57621,-1.70655 1.78645,-3.83303 3.04378,-5.34816 3.86049,-4.65203 9.98754,-7.00645 15.98474,-6.1424 5.92753,0.85399 11.06229,4.75355 13.52787,10.27357 0.52578,1.17707 1.36713,4.17947 1.53706,5.48487 0.45935,3.52845 0.19337,6.69723 -0.85147,10.14455 -1.22083,4.02801 -2.76149,7.05292 -7.46529,14.65751 -2.97786,4.81425 -4.10136,6.70692 -5.4015,9.09951 -2.2874,4.20932 -3.75796,7.63488 -5.06928,11.80858 l -0.54632,1.73882 z"
       id="path864" />
    <path
       sodipodi:nodetypes="cssscc"
       id="path1172"
       d="m 139.11896,149.91224 c -0.0526,-0.007 3.36802,-2.66578 6.80599,-2.71034 3.01666,-0.0391 5.60138,2.10804 6.38437,5.17977 0.92787,3.64013 0.96368,11.26299 -2.46943,16.44276 -3.4331,5.17978 -10.2669,11.09556 -17.1053,13.13012 -23.26436,9.80338 -0.48786,-24.53766 6.38437,-32.04231 z"
       style="fill:#1eba81;fill-opacity:1;stroke:none;stroke-width:0.264583px;stroke-linecap:butt;stroke-linejoin:miter;stroke-opacity:1" />
  </g>
</svg>
