<?xml version="1.0" encoding="UTF-8" standalone="no"?>
<svg
   sodipodi:docname="Nunti.svg"
   inkscape:version="1.1.1 (3bf5ae0d25, 2021-09-20)"
   id="svg8"
   version="1.1"
   viewBox="0 0 210 297"
   height="297mm"
   width="210mm"
   inkscape:export-filename="/home/richard/Projects/School/nunti/Nunti/Resources/Nunti.png"
   inkscape:export-xdpi="831.09253"
   inkscape:export-ydpi="831.09253"
   xmlns:inkscape="http://www.inkscape.org/namespaces/inkscape"
   xmlns:sodipodi="http://sodipodi.sourceforge.net/DTD/sodipodi-0.dtd"
   xmlns="http://www.w3.org/2000/svg"
   xmlns:svg="http://www.w3.org/2000/svg"
   xmlns:rdf="http://www.w3.org/1999/02/22-rdf-syntax-ns#"
   xmlns:cc="http://creativecommons.org/ns#"
   xmlns:dc="http://purl.org/dc/elements/1.1/">
  <defs
     id="defs2">
    <inkscape:path-effect
       overflow_perspective="false"
       vertical_mirror="false"
       horizontal_mirror="false"
       deform_type="perspective"
       lpeversion="1"
       is_visible="true"
       id="path-effect1112"
       down_right_point="82.489113,28.841219"
       down_left_point="36.481778,45.525346"
       up_right_point="85.280046,15.26469"
       up_left_point="38.859878,33.684446"
       effect="perspective-envelope" />
    <inkscape:path-effect
       overflow_perspective="false"
       vertical_mirror="false"
       horizontal_mirror="false"
       deform_type="perspective"
       lpeversion="1"
       is_visible="true"
       id="path-effect1084"
       down_right_point="55.675981,38.067154"
       down_left_point="27.133232,58.152793"
       up_right_point="54.795032,25.195141"
       up_left_point="25.976876,45.265357"
       effect="perspective-envelope" />
    <inkscape:path-effect
       overflow_perspective="false"
       vertical_mirror="false"
       horizontal_mirror="false"
       deform_type="perspective"
       lpeversion="1"
       is_visible="true"
       id="path-effect1057"
       down_right_point="157.83983,65.603083"
       down_left_point="105.60963,100.72332"
       up_right_point="156.03878,33.724715"
       up_left_point="114.61483,63.982152"
       effect="perspective-envelope" />
    <inkscape:path-effect
       effect="perspective-envelope"
       up_left_point="65.402313,63.982152"
       up_right_point="106.82621,33.724715"
       down_left_point="56.397124,100.72332"
       down_right_point="108.62726,65.603083"
       id="path-effect1051"
       is_visible="true"
       lpeversion="1"
       deform_type="perspective"
       horizontal_mirror="false"
       vertical_mirror="false"
       overflow_perspective="false" />
    <inkscape:path-effect
       overflow_perspective="false"
       vertical_mirror="false"
       horizontal_mirror="false"
       deform_type="perspective"
       lpeversion="1"
       is_visible="true"
       id="path-effect990"
       down_right_point="108.06227,65.197569"
       down_left_point="55.832176,100.31781"
       up_right_point="106.26123,33.319201"
       up_left_point="64.837365,63.576638"
       effect="perspective-envelope" />
    <inkscape:path-effect
       overflow_perspective="false"
       vertical_mirror="false"
       horizontal_mirror="false"
       deform_type="perspective"
       lpeversion="1"
       is_visible="true"
       id="path-effect912"
       down_right_point="24.080172,69.196051"
       down_left_point="24.084709,69.202072"
       up_right_point="24.079198,69.20274"
       up_left_point="24.078698,69.21922"
       effect="perspective-envelope" />
    <inkscape:path-effect
       effect="perspective-envelope"
       up_left_point="109.84706,43.218522"
       up_right_point="165.67099,65.085037"
       down_left_point="107.78905,79.491211"
       down_right_point="167.72901,99.556953"
       id="path-effect908"
       is_visible="true"
       lpeversion="1"
       deform_type="perspective"
       horizontal_mirror="false"
       vertical_mirror="false"
       overflow_perspective="false" />
    <inkscape:path-effect
       overflow_perspective="false"
       vertical_mirror="false"
       horizontal_mirror="false"
       deform_type="perspective"
       lpeversion="1"
       is_visible="true"
       id="path-effect904"
       down_right_point="170.81605,98.785194"
       down_left_point="110.87609,78.719452"
       up_right_point="168.75803,57.88195"
       up_left_point="110.61884,36.272689"
       effect="perspective-envelope" />
  </defs>
  <sodipodi:namedview
     inkscape:snap-global="false"
     inkscape:window-maximized="0"
     inkscape:window-y="23"
     inkscape:window-x="26"
     inkscape:window-height="1342"
     inkscape:window-width="2528"
     showgrid="true"
     inkscape:document-rotation="0"
     inkscape:current-layer="layer1"
     inkscape:document-units="mm"
     inkscape:cy="458.65101"
     inkscape:cx="-686.86866"
     inkscape:zoom="0.45132355"
     inkscape:pageshadow="2"
     inkscape:pageopacity="0"
     borderopacity="1.0"
     bordercolor="#666666"
     pagecolor="#edffd1"
     id="base"
     inkscape:pagecheckerboard="0">
    <inkscape:grid
       type="xygrid"
       id="grid166" />
  </sodipodi:namedview>
  <metadata
     id="metadata5">
    <rdf:RDF>
      <cc:Work
         rdf:about="">
        <dc:format>image/svg+xml</dc:format>
        <dc:type
           rdf:resource="http://purl.org/dc/dcmitype/StillImage" />
      </cc:Work>
    </rdf:RDF>
  </metadata>
  <g
     id="layer1"
     inkscape:groupmode="layer"
     inkscape:label="Layer 1">
    <path
       style="fill:#e6e6e6;fill-opacity:1;stroke:none;stroke-width:0.263088;stroke-linecap:round;stroke-linejoin:round"
       d="M 70.128564,89.261345 99.854983,67.06148 c 4.416687,-3.298392 8.559047,-4.218551 9.262107,-1.913291 l 4.17646,13.694184 c 0.99403,3.259229 -2.82597,9.305695 -8.52756,13.296714 L 66.981558,118.58762 c -4.932568,3.45275 -8.278973,2.72333 -7.614601,-1.36262 l 2.832151,-17.417917 c 0.483327,-2.972492 3.98918,-7.603117 7.929456,-10.545738 z"
       id="path1066" />
    <path
       id="path1068"
       d="m 150.69892,87.644977 -30.8685,-20.582311 c -4.58635,-3.058059 -8.7719,-3.755908 -9.35097,-1.416422 l -3.43992,13.897501 c -0.81872,3.30762 3.31842,9.141673 9.22481,12.822819 l 39.14169,24.395026 c 5.10977,3.18467 8.4125,2.27775 7.53108,-1.76694 l -3.75739,-17.241996 c -0.64123,-2.942477 -4.38914,-7.379465 -8.4808,-10.107677 z"
       style="fill:#e6e6e6;fill-opacity:1;stroke:none;stroke-width:0.263088;stroke-linecap:round;stroke-linejoin:round" />
    <ellipse
       ry="43.947796"
       rx="43.62252"
       cy="114.41471"
       cx="109.69656"
       id="path26"
       style="fill:#1eba81;fill-opacity:1;stroke:none;stroke-width:0.355693;stroke-linecap:round;stroke-linejoin:round" />
    <path
       sodipodi:nodetypes="cccscccc"
       id="path1120"
       style="fill:#199b6b;fill-opacity:1;stroke:none;stroke-width:0.239821;stroke-linecap:round;stroke-linejoin:round"
       d="m 111.2085,70.491304 c 6.40582,0.200536 12.6858,1.721485 18.39321,4.454659 l 9.16482,5.875611 c 9.29344,7.757142 14.60898,18.86488 14.60893,30.527896 -4e-5,0.58859 -0.14839,1.05601 -0.17559,1.64405 L 117.88666,91.831079 c -8.68077,-7.038082 -14.41048,-3.112226 -13.74236,-6.08 z" />
    <path
       sodipodi:nodetypes="cccccccc"
       d="m 108.24094,70.491304 c -6.40582,0.211198 -12.685788,1.812993 -18.393196,4.691448 l -9.164814,6.187932 c -9.293441,8.169476 -14.608977,19.867656 -14.608927,32.150626 4.6e-5,0.61987 0.113001,1.17701 0.140161,1.7963 L 108.45532,88.278483 c 5.56193,-3.516949 5.14763,-0.479341 4.47951,-3.604869 z"
       style="fill:#199b6b;fill-opacity:1;stroke:none;stroke-width:0.246112;stroke-linecap:round;stroke-linejoin:round"
       id="path1114" />
    <path
       style="fill:#ffffff;fill-opacity:1;stroke:none;stroke-width:0.266108;stroke-linecap:round;stroke-linejoin:round"
       d="m 154.55907,85.374266 -32.5484,-20.45643 c -4.83595,-3.039356 -9.22607,-3.767746 -9.80643,-1.487898 l -3.44758,13.543221 c -0.82054,3.2233 3.57586,8.970523 9.80084,12.633432 l 41.25296,24.274159 c 5.38536,3.1689 8.83335,2.31922 7.86564,-1.64323 l -4.12529,-16.891447 c -0.70404,-2.882658 -4.67739,-7.260277 -8.99174,-9.971807 z"
       id="path1070" />
    <path
       id="path1064"
       d="M 66.152759,87.199814 97.563412,65.036023 c 4.666918,-3.293032 9.011928,-4.254602 9.713098,-2.008964 l 4.16521,13.34 c 0.99135,3.174933 -3.09217,9.148523 -9.11287,13.138327 L 62.429722,115.94587 c -5.208629,3.4517 -8.697038,2.78719 -7.942095,-1.22125 l 3.218235,-17.087487 c 0.549215,-2.916109 4.283372,-7.49948 8.446897,-10.437319 z"
       style="fill:#ffffff;fill-opacity:1;stroke:none;stroke-width:0.266108;stroke-linecap:round;stroke-linejoin:round" />
    <ellipse
       ry="16.548435"
       rx="14.456708"
       cy="130.16133"
       cx="110.63647"
       id="path870"
       style="fill:#c9ca20;fill-opacity:1;stroke:none;stroke-width:0.260711;stroke-linecap:round;stroke-linejoin:round" />
    <path
       sodipodi:nodetypes="ccscc"
       d="m 110.88688,113.61271 c -6.98008,2e-5 -15.155632,5.94981 -14.693891,18.48943 4.776421,1.63995 9.955351,2.92605 15.285731,2.85469 5.40867,-0.0724 10.36398,-2.84772 13.53923,-4.11748 0.28848,-9.70054 -6.34297,-17.22642 -14.13107,-17.22664 z"
       style="fill:#d0e041;fill-opacity:1;stroke:none;stroke-width:0.240024px;stroke-linecap:butt;stroke-linejoin:miter;stroke-opacity:1"
       id="path879" />
    <rect
       ry="2.689332"
       y="105.11055"
       x="128.13306"
       height="14.579011"
       width="6.0553665"
       id="rect887"
       style="fill:#353535;fill-opacity:1;stroke:none;stroke-width:0.281175;stroke-linecap:round;stroke-linejoin:round" />
    <rect
       style="fill:#353535;fill-opacity:1;stroke:none;stroke-width:0.281175;stroke-linecap:round;stroke-linejoin:round"
       id="rect891"
       width="6.0549998"
       height="14.579011"
       x="-91.291199"
       y="-120.21873"
       ry="2.689332"
       transform="scale(-1)" />
    <path
       id="path1062"
       d="M 158.64362,80.789948 125.27536,59.764696 C 120.3176,56.640827 115.8159,55.893769 115.21963,58.23907 l -3.54215,13.932087 c -0.84303,3.315854 3.66264,9.22522 10.04453,12.989786 l 42.29287,24.947857 c 5.52112,3.25683 9.05745,2.38118 8.06698,-1.69408 L 167.8597,91.042403 c -0.72055,-2.964719 -4.79308,-7.465534 -9.21608,-10.252459 z"
       style="fill:#935328;fill-opacity:1;stroke:none;stroke-width:0.273304;stroke-linecap:round;stroke-linejoin:round" />
    <path
       style="fill:#935328;fill-opacity:1;stroke:none;stroke-width:0.273304;stroke-linecap:round;stroke-linejoin:round"
       d="M 62.049016,82.79377 94.248005,60.018227 c 4.784029,-3.383921 9.239465,-4.370084 9.960015,-2.059935 l 4.2804,13.723267 c 1.01874,3.266154 -3.16524,9.407486 -9.337203,13.50717 L 58.249598,112.35743 c -5.339502,3.54676 -8.917501,2.86102 -8.145882,-1.26127 l 3.289328,-17.572846 c 0.561348,-2.998938 4.387951,-7.710618 8.655971,-10.729548 z"
       id="rect988" />
    <path
       sodipodi:nodetypes="sssssssss"
       d="m 106.00537,56.510752 h 8.59673 c 1.25402,0 2.26357,1.009553 2.26357,2.263571 l -10e-6,18.765878 c 0,1.25402 -1.00955,2.263571 -2.26357,2.263571 l -8.59673,1e-6 c -1.25402,0 -2.26357,-1.009552 -2.26357,-2.263571 l 1e-5,-18.765879 c 0,-1.254018 1.00955,-2.263571 2.26357,-2.263571 z"
       style="fill:#ac602f;fill-opacity:1;stroke:none;stroke-width:0.273107;stroke-linecap:round;stroke-linejoin:round"
       id="rect992" />
    <g
       transform="rotate(-0.62644597,4133.3338,-2771.4044)"
       id="g1082" />
  </g>
</svg>
