<?xml version="1.0" encoding="UTF-8" standalone="no"?>
<svg
   sodipodi:docname="NuntiBanner.svg"
   inkscape:version="1.1.1 (3bf5ae0d25, 2021-09-20, custom)"
   id="svg8"
   version="1.1"
   viewBox="0 0 210 297"
   height="297mm"
   width="210mm"
   inkscape:export-filename="/home/richard/Projects/School/nunti/Nunti/Resources/NuntiBanner.png"
   inkscape:export-xdpi="254"
   inkscape:export-ydpi="254"
   xmlns:inkscape="http://www.inkscape.org/namespaces/inkscape"
   xmlns:sodipodi="http://sodipodi.sourceforge.net/DTD/sodipodi-0.dtd"
   xmlns="http://www.w3.org/2000/svg"
   xmlns:svg="http://www.w3.org/2000/svg"
   xmlns:rdf="http://www.w3.org/1999/02/22-rdf-syntax-ns#"
   xmlns:cc="http://creativecommons.org/ns#"
   xmlns:dc="http://purl.org/dc/elements/1.1/">
  <defs
     id="defs2">
    <inkscape:path-effect
       overflow_perspective="false"
       vertical_mirror="false"
       horizontal_mirror="false"
       deform_type="perspective"
       lpeversion="1"
       is_visible="true"
       id="path-effect1112"
       down_right_point="82.489113,28.841219"
       down_left_point="36.481778,45.525346"
       up_right_point="85.280046,15.26469"
       up_left_point="38.859878,33.684446"
       effect="perspective-envelope" />
    <inkscape:path-effect
       overflow_perspective="false"
       vertical_mirror="false"
       horizontal_mirror="false"
       deform_type="perspective"
       lpeversion="1"
       is_visible="true"
       id="path-effect1084"
       down_right_point="55.675981,38.067154"
       down_left_point="27.133232,58.152793"
       up_right_point="54.795032,25.195141"
       up_left_point="25.976876,45.265357"
       effect="perspective-envelope" />
    <inkscape:path-effect
       overflow_perspective="false"
       vertical_mirror="false"
       horizontal_mirror="false"
       deform_type="perspective"
       lpeversion="1"
       is_visible="true"
       id="path-effect1057"
       down_right_point="157.83983,65.603083"
       down_left_point="105.60963,100.72332"
       up_right_point="156.03878,33.724715"
       up_left_point="114.61483,63.982152"
       effect="perspective-envelope" />
    <inkscape:path-effect
       effect="perspective-envelope"
       up_left_point="65.402313,63.982152"
       up_right_point="106.82621,33.724715"
       down_left_point="56.397124,100.72332"
       down_right_point="108.62726,65.603083"
       id="path-effect1051"
       is_visible="true"
       lpeversion="1"
       deform_type="perspective"
       horizontal_mirror="false"
       vertical_mirror="false"
       overflow_perspective="false" />
    <inkscape:path-effect
       overflow_perspective="false"
       vertical_mirror="false"
       horizontal_mirror="false"
       deform_type="perspective"
       lpeversion="1"
       is_visible="true"
       id="path-effect990"
       down_right_point="108.06227,65.197569"
       down_left_point="55.832176,100.31781"
       up_right_point="106.26123,33.319201"
       up_left_point="64.837365,63.576638"
       effect="perspective-envelope" />
    <inkscape:path-effect
       overflow_perspective="false"
       vertical_mirror="false"
       horizontal_mirror="false"
       deform_type="perspective"
       lpeversion="1"
       is_visible="true"
       id="path-effect912"
       down_right_point="24.080172,69.196051"
       down_left_point="24.084709,69.202072"
       up_right_point="24.079198,69.20274"
       up_left_point="24.078698,69.21922"
       effect="perspective-envelope" />
    <inkscape:path-effect
       effect="perspective-envelope"
       up_left_point="109.84706,43.218522"
       up_right_point="165.67099,65.085037"
       down_left_point="107.78905,79.491211"
       down_right_point="167.72901,99.556953"
       id="path-effect908"
       is_visible="true"
       lpeversion="1"
       deform_type="perspective"
       horizontal_mirror="false"
       vertical_mirror="false"
       overflow_perspective="false" />
    <inkscape:path-effect
       overflow_perspective="false"
       vertical_mirror="false"
       horizontal_mirror="false"
       deform_type="perspective"
       lpeversion="1"
       is_visible="true"
       id="path-effect904"
       down_right_point="170.81605,98.785194"
       down_left_point="110.87609,78.719452"
       up_right_point="168.75803,57.88195"
       up_left_point="110.61884,36.272689"
       effect="perspective-envelope" />
  </defs>
  <sodipodi:namedview
     inkscape:snap-global="false"
     inkscape:window-maximized="1"
     inkscape:window-y="27"
     inkscape:window-x="0"
     inkscape:window-height="1389"
     inkscape:window-width="2560"
     showgrid="true"
     inkscape:document-rotation="0"
     inkscape:current-layer="layer2"
     inkscape:document-units="mm"
     inkscape:cy="747.80054"
     inkscape:cx="312.41445"
     inkscape:zoom="1.8052942"
     inkscape:pageshadow="2"
     inkscape:pageopacity="0"
     borderopacity="1.0"
     bordercolor="#666666"
     pagecolor="#edffd1"
     id="base"
     inkscape:pagecheckerboard="0">
    <inkscape:grid
       type="xygrid"
       id="grid166" />
  </sodipodi:namedview>
  <metadata
     id="metadata5">
    <rdf:RDF>
      <cc:Work
         rdf:about="">
        <dc:format>image/svg+xml</dc:format>
        <dc:type
           rdf:resource="http://purl.org/dc/dcmitype/StillImage" />
      </cc:Work>
    </rdf:RDF>
  </metadata>
  <g
     inkscape:groupmode="layer"
     id="layer2"
     inkscape:label="Background"
     style="display:inline">
    <rect
       style="fill:#89d6bc;fill-opacity:1;stroke:#d372c7;stroke-width:0;stroke-dasharray:none"
       id="rect951"
       width="200"
       height="100"
       x="4.7948503"
       y="153.92558" />
  </g>
  <g
     id="layer1"
     inkscape:groupmode="layer"
     inkscape:label="Foreground"
     style="display:inline">
    <g
       transform="rotate(-0.62644597,4133.3338,-2771.4044)"
       id="g1082" />
    <path
       sodipodi:nodetypes="cssssccc"
       id="path30"
       d="m 92.517,211.22585 c 0.0202,-0.003 -1.29388,-1.02411 -2.61464,-1.04123 -1.1589,-0.015 -2.15186,0.80984 -2.45266,1.9899 -0.35646,1.39842 -0.37021,4.32687 0.94867,6.31677 1.31889,1.9899 3.94421,4.26255 6.5713,5.04417 2.79974,0.83298 3.97979,1.06436 3.97979,1.06436 l -2.66091,-9.25534 z"
       style="fill:#1eba81;fill-opacity:1;stroke:none;stroke-width:0.101644px;stroke-linecap:butt;stroke-linejoin:miter;stroke-opacity:1" />
    <path
       style="fill:#1eba81;fill-opacity:1;stroke:none;stroke-width:0.101644px;stroke-linecap:butt;stroke-linejoin:miter;stroke-opacity:1"
       d="m 117.88723,211.22585 c -0.0202,-0.003 1.29388,-1.02411 2.61464,-1.04123 1.1589,-0.015 2.15187,0.80984 2.45266,1.9899 0.35646,1.39842 0.37022,4.32687 -0.94867,6.31677 -1.31889,1.9899 -3.94421,4.26255 -6.5713,5.04417 -2.79974,0.83298 -3.9798,1.06436 -3.9798,1.06436 l 2.66092,-9.25534 z"
       id="path32"
       sodipodi:nodetypes="cssssccc" />
    <path
       d="m 101.75542,224.42235 c -0.851,-0.001 -1.53704,0.68299 -1.53816,1.534 l -0.003,1.9239 h -1.92369 c -0.85101,0 -1.53618,0.68517 -1.53618,1.53617 0,0.85101 0.68517,1.53598 1.53618,1.53598 h 3.4559 c 0.42551,0 0.80947,-0.17121 1.08712,-0.44886 2e-4,-2e-4 4.2e-4,-3.9e-4 6.1e-4,-7.7e-4 0.27802,-0.27729 0.4499,-0.66102 0.45045,-1.08652 l 0.004,-3.4559 c 10e-4,-0.85101 -0.68299,-1.53705 -1.534,-1.53817 z"
       style="fill:#d0d800;fill-opacity:1;stroke:none;stroke-width:0.0882206;stroke-linecap:round;stroke-linejoin:round"
       id="rect34" />
    <path
       id="path45"
       style="fill:#d0d800;fill-opacity:1;stroke:none;stroke-width:0.0882206;stroke-linecap:round;stroke-linejoin:round"
       d="m 108.6565,224.42235 c 0.85101,-0.001 1.53705,0.68299 1.53817,1.534 l 0.003,1.92389 h 1.92341 c 0.85101,0 1.53618,0.68517 1.53618,1.53618 0,0.85101 -0.68517,1.53598 -1.53618,1.53598 h -3.45592 c -0.42551,0 -0.80947,-0.17121 -1.08712,-0.44886 -2.1e-4,-2.1e-4 -3.9e-4,-3.9e-4 -7.7e-4,-7.7e-4 -0.27802,-0.27729 -0.44989,-0.66102 -0.45045,-1.08652 l -0.004,-3.45591 c -0.001,-0.85101 0.68298,-1.53705 1.534,-1.53817 z" />
    <path
       d="m 101.75542,224.42235 c -0.851,-0.001 -1.53704,0.68299 -1.53816,1.534 l -0.003,1.9239 3.07077,1.18141 0.004,-3.10114 c 0.001,-0.85101 -0.68298,-1.53705 -1.534,-1.53817 z"
       style="fill:#a8ae00;fill-opacity:1;stroke:none;stroke-width:0.101644px;stroke-linecap:butt;stroke-linejoin:miter;stroke-opacity:1"
       id="path893" />
    <path
       id="path898"
       style="fill:#a8ae00;fill-opacity:1;stroke:none;stroke-width:0.101644px;stroke-linecap:butt;stroke-linejoin:miter;stroke-opacity:1"
       d="m 108.66029,224.42235 c 0.85101,-0.001 1.53705,0.68299 1.53817,1.534 l 0.003,1.92389 -3.07078,1.18142 -0.004,-3.10114 c -10e-4,-0.85101 0.68298,-1.53705 1.53399,-1.53817 z" />
    <ellipse
       ry="11.888271"
       rx="13.012904"
       cy="214.58311"
       cx="105.08866"
       id="path28"
       style="fill:#178d62;fill-opacity:1;stroke:none;stroke-width:0.129981;stroke-linecap:round;stroke-linejoin:round" />
    <path
       style="fill:#e6e6e6;fill-opacity:1;stroke:none;stroke-width:0.10107;stroke-linecap:round;stroke-linejoin:round"
       d="m 89.88728,187.92576 11.41991,-8.52846 c 1.69675,-1.26714 3.28811,-1.62063 3.5582,-0.73503 l 1.60446,5.26086 c 0.38187,1.25209 -1.08564,3.57495 -3.27601,5.10816 L 88.6783,199.19195 c -1.89493,1.32644 -3.18051,1.04622 -2.92528,-0.52347 l 1.08802,-6.69139 c 0.18568,-1.14194 1.53251,-2.92087 3.04624,-4.05133 z"
       id="path1066" />
    <path
       id="path1068"
       d="m 120.83977,187.3048 -11.85867,-7.90705 c -1.76192,-1.1748 -3.36987,-1.44289 -3.59233,-0.54414 l -1.32151,5.33897 c -0.31452,1.27068 1.27483,3.51193 3.54387,4.9261 l 15.03696,9.37177 c 1.963,1.22345 3.23181,0.87504 2.89319,-0.6788 l -1.44346,-6.62381 c -0.24634,-1.1304 -1.68617,-2.83495 -3.25805,-3.88304 z"
       style="fill:#e6e6e6;fill-opacity:1;stroke:none;stroke-width:0.10107;stroke-linecap:round;stroke-linejoin:round" />
    <ellipse
       ry="16.883305"
       rx="16.758345"
       cy="197.58867"
       cx="105.08801"
       id="path26"
       style="fill:#1eba81;fill-opacity:1;stroke:none;stroke-width:0.136646;stroke-linecap:round;stroke-linejoin:round" />
    <path
       sodipodi:nodetypes="cccscccc"
       id="path1120"
       style="fill:#199b6b;fill-opacity:1;stroke:none;stroke-width:0.0921314;stroke-linecap:round;stroke-linejoin:round"
       d="m 105.66884,180.71493 c 2.46091,0.077 4.87347,0.66133 7.06607,1.71133 l 3.52083,2.25722 c 3.57023,2.98004 5.61229,7.24727 5.61227,11.72781 -2e-5,0.22612 -0.057,0.40569 -0.0675,0.63159 l -13.56618,-8.12991 c -3.33486,-2.7038 -5.53603,-1.19562 -5.27936,-2.33574 z" />
    <path
       sodipodi:nodetypes="cccccccc"
       d="m 104.5288,180.71493 c -2.4609,0.0811 -4.87346,0.69649 -7.06606,1.8023 l -3.52082,2.3772 c -3.57024,3.13844 -5.61229,7.6325 -5.61227,12.35121 1e-5,0.23814 0.0434,0.45217 0.0538,0.69008 l 16.22767,-10.38754 c 2.13671,-1.3511 1.97755,-0.18415 1.72088,-1.38487 z"
       style="fill:#199b6b;fill-opacity:1;stroke:none;stroke-width:0.0945482;stroke-linecap:round;stroke-linejoin:round"
       id="path1114" />
    <path
       style="fill:#ffffff;fill-opacity:1;stroke:none;stroke-width:0.10223;stroke-linecap:round;stroke-linejoin:round"
       d="m 122.32271,186.43247 -12.50403,-7.85869 c -1.85781,-1.16762 -3.54435,-1.44745 -3.76731,-0.5716 l -1.32444,5.20286 c -0.31523,1.23829 1.37372,3.44618 3.76516,4.85335 l 15.84804,9.32534 c 2.06887,1.21739 3.39348,0.89097 3.02172,-0.63128 l -1.5848,-6.48913 c -0.27047,-1.10743 -1.7969,-2.78917 -3.45434,-3.83085 z"
       id="path1070" />
    <path
       id="path1064"
       d="m 88.3599,187.13379 12.06695,-8.5146 c 1.79287,-1.26508 3.46208,-1.63449 3.73145,-0.77178 l 1.60014,5.12479 c 0.38084,1.2197 -1.18791,3.51456 -3.50087,5.04731 l -15.32794,10.15757 c -2.00098,1.32603 -3.34112,1.07075 -3.05109,-0.46916 l 1.23634,-6.56445 c 0.21099,-1.12028 1.64553,-2.88106 3.24502,-4.00968 z"
       style="fill:#ffffff;fill-opacity:1;stroke:none;stroke-width:0.10223;stroke-linecap:round;stroke-linejoin:round" />
    <ellipse
       ry="6.3573675"
       rx="5.5537939"
       cy="203.63802"
       cx="105.44909"
       id="path870"
       style="fill:#c9ca20;fill-opacity:1;stroke:none;stroke-width:0.100157;stroke-linecap:round;stroke-linejoin:round" />
    <path
       sodipodi:nodetypes="ccscc"
       d="m 105.54529,197.28076 c -2.68152,0 -5.8223,2.28572 -5.64492,7.10303 1.83495,0.63002 3.82452,1.12409 5.87228,1.09668 2.07784,-0.0278 3.9815,-1.094 5.20133,-1.5818 0.11083,-3.72663 -2.43676,-6.61783 -5.42869,-6.61791 z"
       style="fill:#d0e041;fill-opacity:1;stroke:none;stroke-width:0.0922094px;stroke-linecap:butt;stroke-linejoin:miter;stroke-opacity:1"
       id="path879" />
    <rect
       ry="1.0331533"
       y="194.01431"
       x="112.17071"
       height="5.6007791"
       width="2.3262737"
       id="rect887"
       style="fill:#353535;fill-opacity:1;stroke:none;stroke-width:0.108018;stroke-linecap:round;stroke-linejoin:round" />
    <rect
       style="fill:#353535;fill-opacity:1;stroke:none;stroke-width:0.108018;stroke-linecap:round;stroke-linejoin:round"
       id="rect891"
       width="2.3262737"
       height="5.6007791"
       x="95.691147"
       y="194.21761"
       ry="1.0331533" />
    <path
       id="path1062"
       d="m 123.89186,184.67133 -12.81899,-8.07722 c -1.90461,-1.20009 -3.63402,-1.48708 -3.86308,-0.58609 l -1.36078,5.35225 c -0.32387,1.27384 1.40707,3.54403 3.85878,4.99025 l 16.24754,9.58415 c 2.12103,1.25117 3.47957,0.91477 3.09907,-0.65081 l -1.62202,-6.67387 c -0.27681,-1.13895 -1.84134,-2.86802 -3.54052,-3.93866 z"
       style="fill:#935328;fill-opacity:1;stroke:none;stroke-width:0.104994;stroke-linecap:round;stroke-linejoin:round" />
    <path
       style="fill:#935328;fill-opacity:1;stroke:none;stroke-width:0.104994;stroke-linecap:round;stroke-linejoin:round"
       d="m 86.78338,185.44113 12.3698,-8.74962 c 1.83786,-1.29999 3.5495,-1.67884 3.82631,-0.79136 l 1.64439,5.27203 c 0.39136,1.25475 -1.21598,3.61405 -3.58705,5.18901 l -15.71306,10.43733 c -2.05127,1.36255 -3.42582,1.09911 -3.12939,-0.48454 l 1.26366,-6.75091 c 0.21565,-1.15209 1.6857,-2.96217 3.32534,-4.12194 z"
       id="rect988" />
    <path
       sodipodi:nodetypes="sssssssss"
       d="m 103.66997,175.34406 h 3.30258 c 0.48176,0 0.86959,0.38783 0.86959,0.86959 v 7.20923 c 0,0.48175 -0.38784,0.86959 -0.86959,0.86959 h -3.30258 c -0.48176,0 -0.86959,-0.38784 -0.86959,-0.86959 v -7.20923 c 0,-0.48176 0.38784,-0.86959 0.86959,-0.86959 z"
       style="fill:#ac602f;fill-opacity:1;stroke:none;stroke-width:0.104919;stroke-linecap:round;stroke-linejoin:round"
       id="rect992" />
  </g>
</svg>
